PathFileType	4	(X/Y/Z)	E:\3-PhD\Data\MocapData\ElaboratedData\009\pre\dynamicElaborations\RunN1\RunN1.trc
DataRate	CameraRate	NumFrames	NumMarkers	Units	OrigDataRate	DataStartFrame
200	200	4	54	mm	200	557
Frame#	Time	FHD			LBHD			RBHD			C7			T10			CLAV			LSHO			LUUPA			LMUPA			LDUPA			LLEP			LMEP			LRAD			LUL			LRFIN			RSHO			RUPA1			RMUPA			RDUPA			RLEP			RMEP			RRAD			RUL			RUFIN			RASI			USACR			LSACR			RSACR			LTHI1			LTHI2			LTHI3			LTHI4			LTIB1			LTIB2			LTIB3			LTIB4			LLMAL			LHEE			LMT1			LMT2			RTHI			RTHI2			RTHI3			RTHI4			RLFC			RTIB1			RTIB2			RTIB3			RTIB4			RLMAL			RHEE			RMT1			RMT2			RMT5		
		X1	Y1	Z1	X2	Y2	Z2	X3	Y3	Z3	X4	Y4	Z4	X5	Y5	Z5	X6	Y6	Z6	X7	Y7	Z7	X8	Y8	Z8	X9	Y9	Z9	X10	Y10	Z10	X11	Y11	Z11	X12	Y12	Z12	X13	Y13	Z13	X14	Y14	Z14	X15	Y15	Z15	X16	Y16	Z16	X17	Y17	Z17	X18	Y18	Z18	X19	Y19	Z19	X20	Y20	Z20	X21	Y21	Z21	X22	Y22	Z22	X23	Y23	Z23	X24	Y24	Z24	X25	Y25	Z25	X26	Y26	Z26	X27	Y27	Z27	X28	Y28	Z28	X29	Y29	Z29	X30	Y30	Z30	X31	Y31	Z31	X32	Y32	Z32	X33	Y33	Z33	X34	Y34	Z34	X35	Y35	Z35	X36	Y36	Z36	X37	Y37	Z37	X38	Y38	Z38	X39	Y39	Z39	X40	Y40	Z40	X41	Y41	Z41	X42	Y42	Z42	X43	Y43	Z43	X44	Y44	Z44	X45	Y45	Z45	X46	Y46	Z46	X47	Y47	Z47	X48	Y48	Z48	X49	Y49	Z49	X50	Y50	Z50	X51	Y51	Z51	X52	Y52	Z52	X53	Y53	Z53	X54	Y54	Z54	

628	3.135000	-1000.500445	1515.901073	439.612539	-1166.233427	1583.708358	349.385780	-1134.713669	1557.418860	469.170872	-1265.770612	1462.387602	382.809170	-1459.516417	1161.928616	354.474724	-1172.096047	1327.461684	383.248619	-1176.998442	1424.292748	253.451818	-1220.136244	1297.291415	110.145257	-1186.018993	1265.313791	110.636145	-1224.543031	1239.040573	73.288531	-1235.291279	1123.405180	34.182484	-1280.893407	1088.122651	90.252883	-1075.614832	1152.360175	231.402487	-1038.169483	1094.163289	207.952081	-1016.601683	1190.957588	230.400620	-1215.886766	1406.988886	539.520638	-1377.899531	1368.628779	615.652918	-1387.293272	1322.569159	617.487583	-1444.472254	1349.944991	625.405754	-1568.109871	1299.626579	640.500188	-1576.926456	1283.935284	569.985591	-1554.977908	1034.222483	674.412102	-1620.119306	1052.619225	705.686440	-1538.932403	997.756726	745.537237	-1339.297881	946.169345	443.001469	-1500.281383	1078.358550	367.643396	-1511.870890	1050.587004	338.285833	-1508.651856	1045.685348	396.772768	-1531.170866	740.744015	168.619620	-1547.349662	657.725363	177.559909	-1508.163243	637.163903	193.322171	-1601.411761	629.779667	184.312830	-1816.876629	449.512086	242.535504	-1872.692252	507.932605	208.911905	-1867.984442	467.778549	223.291177	-1944.421288	448.742446	258.848676	-2103.731755	485.539482	263.705632	-2119.110139	560.017402	319.378974	-2176.779514	346.934933	338.509852	-2185.126640	347.019891	293.075060	-1301.400687	746.562691	526.468540	-1241.207622	723.230184	518.612179	-1216.448553	740.001410	501.556842	-1223.018164	638.638130	504.229726	-1154.976501	561.663205	478.975849	-1049.304946	375.277520	436.024848	-1085.644602	275.987794	470.730695	-1044.717218	290.176853	451.696488	-1024.432918	250.454378	419.546403	-1040.504976	134.111202	442.117330	-1096.575500	75.880579	389.436315	-884.040046	152.281108	362.044534	-876.264568	140.788745	398.962533	-899.433833	89.067055	442.761671	
629	3.140000	-971.005673	1514.743609	440.342016	-1136.971048	1582.156486	350.252972	-1105.325996	1555.644284	469.997832	-1235.577682	1461.524169	383.662045	-1430.066965	1161.273417	354.540682	-1142.906978	1325.748109	383.111473	-1146.899650	1422.076967	253.525317	-1195.210396	1297.171425	110.030840	-1162.235550	1263.934284	109.732098	-1202.209334	1239.580618	72.475563	-1217.129040	1123.602801	33.632460	-1265.203260	1090.754300	89.338475	-1053.526475	1135.964118	229.919730	-1021.701469	1074.989085	205.643593	-990.868539	1168.765370	229.597306	-1186.241746	1404.812404	540.141307	-1347.401363	1363.416747	617.507137	-1356.148126	1317.225038	618.913934	-1413.763003	1343.710994	628.353945	-1536.384093	1291.392961	643.678485	-1545.691628	1276.196940	573.115565	-1516.466923	1025.965414	674.474569	-1581.546856	1042.582155	707.091998	-1498.171014	989.039877	744.596849	-1310.388472	945.731835	444.407490	-1471.397772	1076.614988	366.580701	-1482.511259	1048.883596	336.997466	-1479.787188	1043.816668	395.521745	-1498.624549	738.339879	167.315559	-1513.606549	654.974855	174.818977	-1473.853788	634.735009	189.855314	-1567.127445	626.161045	182.132244	-1780.628488	449.748698	240.446188	-1834.028739	510.920966	207.572563	-1831.065986	470.532110	221.716073	-1907.903316	455.252349	258.141699	-2064.949473	500.243192	264.534431	-2076.273791	575.157424	321.210260	-2143.402192	364.542394	338.496189	-2152.357225	365.505813	293.463256	-1274.895298	742.499306	526.730260	-1215.103908	718.094262	518.971436	-1189.878102	734.472790	502.185224	-1198.368631	633.355943	503.871947	-1130.864395	555.579699	478.671380	-1025.126008	368.902241	436.127141	-1062.027400	269.483225	469.979411	-1020.784409	283.786084	451.592031	-999.928933	244.139637	419.435358	-1016.737956	127.854959	441.661314	-1072.513783	70.762368	387.886232	-859.181160	145.058842	363.127303	-852.122649	133.278850	400.127759	-876.206015	81.954799	443.666294	
630	3.145000	-941.706314	1513.519457	440.914976	-1107.903308	1580.392666	350.907717	-1076.173672	1553.744592	470.647643	-1205.700172	1460.386586	384.409338	-1400.608283	1160.281469	354.628831	-1113.803235	1323.709210	382.819571	-1117.072925	1419.602553	253.479009	-1170.372806	1296.694250	109.978652	-1138.611986	1262.218163	109.042829	-1179.903253	1239.715907	71.939366	-1198.964391	1123.655620	33.327407	-1249.250349	1093.358997	88.701377	-1032.115007	1118.749862	227.767106	-1006.346229	1055.385274	202.657055	-966.228921	1145.248666	227.853231	-1156.683543	1402.475875	540.668677	-1316.759728	1357.792316	619.394396	-1324.832433	1311.483275	620.363795	-1382.804477	1336.974837	631.379085	-1504.365929	1282.526942	647.097274	-1514.259845	1267.876403	576.490081	-1477.295081	1017.285746	674.436915	-1542.212391	1031.989123	708.471071	-1456.582057	980.004971	743.472075	-1281.366176	945.157297	445.742826	-1442.325772	1074.641613	365.410662	-1453.039352	1046.901558	335.647662	-1450.816943	1041.777921	394.202426	-1466.181751	735.847463	165.943278	-1479.826666	652.146137	171.962740	-1439.494531	632.250063	186.193984	-1532.742719	622.383129	179.837451	-1743.458581	449.605275	238.389992	-1794.396855	513.239943	206.047767	-1793.128602	472.729712	220.082051	-1870.146660	461.196244	257.438868	-2024.501991	514.033959	265.235761	-2032.042302	589.250152	322.788999	-2108.103096	381.286147	338.435065	-2117.538578	383.083421	293.796177	-1248.296053	738.683809	526.773108	-1188.904441	713.252669	519.286901	-1163.143614	729.311657	502.944762	-1173.540733	628.460717	503.295304	-1106.698604	549.683167	478.408223	-1001.968370	362.051050	435.834108	-1040.008648	262.737829	468.859049	-998.411426	276.913163	451.057255	-977.395147	237.234182	418.764225	-995.704366	121.255583	440.732105	-1051.696713	65.886317	386.064776	-837.154676	136.475256	363.770911	-830.897529	124.610921	400.895192	-856.221840	74.174879	444.436475	
631	3.150000	-912.589817	1512.282624	441.320767	-1079.023631	1578.470677	351.357084	-1047.236623	1551.783336	471.125069	-1176.164038	1458.996116	385.065149	-1371.168431	1158.947446	354.726091	-1084.765825	1321.394482	382.396309	-1087.555832	1416.930963	253.281993	-1145.626861	1295.832066	109.971835	-1115.147600	1260.144822	108.606013	-1157.602272	1239.384083	71.702258	-1180.734639	1123.554234	33.268306	-1232.950318	1095.879225	88.342262	-1011.476280	1100.836930	224.924709	-992.082515	1035.605270	198.940290	-942.901267	1120.662621	225.153222	-1127.231192	1400.012371	541.115261	-1285.969575	1351.780474	621.293033	-1293.342167	1305.368742	621.824104	-1351.575427	1329.756255	634.432466	-1472.022653	1273.040073	650.727854	-1482.603079	1258.972261	580.081722	-1437.466120	1008.241892	674.295022	-1502.106188	1020.891297	709.775799	-1414.202997	970.738836	742.169557	-1252.226008	944.429043	446.972096	-1413.080181	1072.479754	364.168038	-1423.473212	1044.674795	334.283284	-1421.748984	1039.613575	392.862740	-1433.702612	733.156025	164.568073	-1445.871594	649.143583	169.105358	-1404.959871	629.637062	182.477184	-1498.117749	618.340292	177.473644	-1705.418958	449.096777	236.337259	-1753.873126	514.917944	204.323106	-1754.240016	474.392866	218.370720	-1831.233680	466.561316	256.694989	-1982.562468	526.827534	265.779535	-1986.643572	602.236515	324.076575	-2070.906834	397.025288	338.323808	-2080.708162	399.581232	294.054487	-1221.623522	735.038636	526.669487	-1162.638327	708.610002	519.592046	-1136.284638	724.392974	503.860369	-1148.585349	623.844400	502.571388	-1082.498551	543.887340	478.202869	-979.787701	354.788163	435.086076	-1019.486196	255.822283	467.337696	-977.523871	269.630410	450.024212	-956.778381	229.821993	417.461068	-977.280141	114.447726	439.264170	-1034.020942	61.335867	384.026358	-817.955161	126.766027	363.797360	-812.524049	115.086679	401.078140	-839.336668	66.105131	444.978480	
